<?xml version="1.0" encoding="UTF-8" standalone="no"?>
<!-- Created with Inkscape (http://www.inkscape.org/) -->

<svg
   xmlns:dc="http://purl.org/dc/elements/1.1/"
   xmlns:cc="http://creativecommons.org/ns#"
   xmlns:rdf="http://www.w3.org/1999/02/22-rdf-syntax-ns#"
   xmlns:svg="http://www.w3.org/2000/svg"
   xmlns="http://www.w3.org/2000/svg"
   xmlns:sodipodi="http://sodipodi.sourceforge.net/DTD/sodipodi-0.dtd"
   xmlns:inkscape="http://www.inkscape.org/namespaces/inkscape"
   width="470"
   height="90"
   id="svg6452"
   version="1.1"
   inkscape:version="0.48.4 r9939"
   sodipodi:docname="logo-lockup-1.svg">
  <defs
     id="defs6454" />
  <sodipodi:namedview
     id="base"
     pagecolor="#ffffff"
     bordercolor="#666666"
     borderopacity="1.0"
     inkscape:pageopacity="0.0"
     inkscape:pageshadow="2"
     inkscape:zoom="1.3906921"
     inkscape:cx="131.29096"
     inkscape:cy="24.47751"
     inkscape:document-units="px"
     inkscape:current-layer="layer1"
     showgrid="false"
     showborder="true"
     inkscape:window-width="1855"
     inkscape:window-height="951"
     inkscape:window-x="65"
     inkscape:window-y="24"
     inkscape:window-maximized="1"
     fit-margin-top="0"
     fit-margin-left="0"
     fit-margin-right="0"
     fit-margin-bottom="0" />
  <metadata
     id="metadata6457">
    <rdf:RDF>
      <cc:Work
         rdf:about="">
        <dc:format>image/svg+xml</dc:format>
        <dc:type
           rdf:resource="http://purl.org/dc/dcmitype/StillImage" />
        <dc:title></dc:title>
      </cc:Work>
    </rdf:RDF>
  </metadata>
  <g
     inkscape:label="Layer 1"
     inkscape:groupmode="layer"
     id="layer1"
     transform="translate(-388.66047,-340.15417)">
    <g
       id="g3107"
       transform="translate(4.1953,-1.75781)">
      <path
         sodipodi:nodetypes="cccccccccscccsssscscccccccccscccsscccscc"
         inkscape:connector-curvature="0"
         id="path7093"
         style="font-size:144px;font-style:normal;font-variant:normal;font-weight:normal;font-stretch:normal;line-height:125%;letter-spacing:5px;word-spacing:0px;fill:#ed1c24;fill-opacity:1;stroke:none;font-family:Courier New;-inkscape-font-specification:Courier New"
         d="m 827.48864,400.34167 -19.45937,0 c -5.07114,-0.20699 -4.1901,-5.80276 0.0531,-5.90625 l 17.15625,0 m 0,0 -16.3125,-42.96094 -2.17969,0 -15.82031,42.96094 c -3.22613,9.2268 -6.75629,18.34339 -10.19532,27.49218 l 11.32032,0 c 1.40622,1e-5 2.41403,0.28126 3.02343,0.84375 0.60935,0.51563 0.91404,1.21876 0.91407,2.10938 -3e-5,0.84375 -0.30472,1.54688 -0.91407,2.10937 -0.6094,0.5625 -1.61721,0.84375 -3.02343,0.84375 l -22.07813,0 c -1.40625,0 -2.41406,-0.28125 -3.02344,-0.84375 -0.60937,-0.56249 -0.91406,-1.26562 -0.91406,-2.10937 0,-0.89062 0.30469,-1.59375 0.91406,-2.10938 0.60938,-0.56249 1.61719,-0.84374 3.02344,-0.84375 l 4.57031,0 26.08594,-70.45312 -17.4375,0 c -1.40626,7e-5 -2.41408,-0.25774 -3.02344,-0.77344 -0.60938,-0.56242 -0.91407,-1.28898 -0.91406,-2.17969 -10e-6,-0.89054 0.30468,-1.59367 0.91406,-2.10937 0.60936,-0.56242 1.61718,-0.84367 3.02344,-0.84375 l 29.74219,0 28.82812,76.35937 4.57032,0 c 1.40616,1e-5 2.41398,0.28126 3.02343,0.84375 0.60929,0.51563 0.91398,1.21876 0.91407,2.10938 -9e-5,0.84375 -0.30478,1.54688 -0.91407,2.10937 -0.60945,0.5625 -1.61727,0.84375 -3.02343,0.84375 l -22.00782,0 c -1.45318,0 -2.48443,-0.28125 -3.09375,-0.84375 -0.60943,-0.56249 -0.91411,-1.26562 -0.91406,-2.10937 -5e-5,-0.89062 0.30463,-1.59375 0.91406,-2.10938 0.60932,-0.56249 1.64057,-0.84374 3.09375,-0.84375 l 11.25,0 -8.08593,-21.58593" />
      <path
         d="m 450.11362,400.34167 -19.45937,0 c -5.07114,-0.20699 -4.1901,-5.80276 0.0531,-5.90625 l 17.15625,0 m 0,0 -16.3125,-42.96094 -2.17969,0 -15.82031,42.96094 c -3.22613,9.2268 -6.75629,18.34339 -10.19532,27.49218 l 11.32032,0 c 1.40622,1e-5 2.41403,0.28126 3.02343,0.84375 0.60935,0.51563 0.91404,1.21876 0.91407,2.10938 -3e-5,0.84375 -0.30472,1.54688 -0.91407,2.10937 -0.6094,0.5625 -1.61721,0.84375 -3.02343,0.84375 l -22.07813,0 c -1.40625,0 -2.41406,-0.28125 -3.02344,-0.84375 -0.60937,-0.56249 -0.91406,-1.26562 -0.91406,-2.10937 0,-0.89062 0.30469,-1.59375 0.91406,-2.10938 0.60938,-0.56249 1.61719,-0.84374 3.02344,-0.84375 l 4.57031,0 26.08594,-70.45312 -17.4375,0 c -1.40626,7e-5 -2.41408,-0.25774 -3.02344,-0.77344 -0.60938,-0.56242 -0.91407,-1.28898 -0.91406,-2.17969 -10e-6,-0.89054 0.30468,-1.59367 0.91406,-2.10937 0.60936,-0.56242 1.61718,-0.84367 3.02344,-0.84375 l 29.74219,0 28.82812,76.35937 4.57032,0 c 1.40616,1e-5 2.41398,0.28126 3.02343,0.84375 0.60929,0.51563 0.91398,1.21876 0.91407,2.10938 -9e-5,0.84375 -0.30478,1.54688 -0.91407,2.10937 -0.60945,0.5625 -1.61727,0.84375 -3.02343,0.84375 l -22.00782,0 c -1.45318,0 -2.48443,-0.28125 -3.09375,-0.84375 -0.60943,-0.56249 -0.91411,-1.26562 -0.91406,-2.10937 -5e-5,-0.89062 0.30463,-1.59375 0.91406,-2.10938 0.60932,-0.56249 1.64057,-0.84374 3.09375,-0.84375 l 11.25,0 -8.08593,-21.58593"
         style="font-size:144px;font-style:normal;font-variant:normal;font-weight:normal;font-stretch:normal;line-height:125%;letter-spacing:5px;word-spacing:0px;fill:#ed1c24;fill-opacity:1;stroke:none;font-family:Courier New;-inkscape-font-specification:Courier New"
         id="path7073"
         inkscape:connector-curvature="0"
         sodipodi:nodetypes="cccccccccscccsssscscccccccccscccsscccscc" />
      <path
         d="m 556.94955,427.83385 -7.59375,0 -43.52343,-73.61718 0,67.71093 10.89843,0 c 1.4531,1e-5 2.48435,0.28126 3.09375,0.84375 0.60934,0.51563 0.91403,1.21876 0.91407,2.10938 -4e-5,0.84375 -0.30473,1.54688 -0.91407,2.10937 -0.6094,0.5625 -1.64065,0.84375 -3.09375,0.84375 l -21.72656,0 c -1.45313,0 -2.48438,-0.28125 -3.09375,-0.84375 -0.60938,-0.56249 -0.91407,-1.26562 -0.91406,-2.10937 -10e-6,-0.89062 0.30468,-1.59375 0.91406,-2.10938 0.60937,-0.56249 1.64062,-0.84374 3.09375,-0.84375 l 4.92188,0 0,-70.45312 -7.94532,0 c -1.40625,7e-5 -2.41406,-0.25774 -3.02343,-0.77344 -0.60938,-0.56242 -0.91407,-1.28898 -0.91407,-2.17969 0,-0.89054 0.30469,-1.59367 0.91407,-2.10937 0.60937,-0.56242 1.61718,-0.84367 3.02343,-0.84375 l 15.46875,0 43.59375,73.75781 0,-67.85156 -10.89843,0 c -1.40631,7e-5 -2.41412,-0.25774 -3.02344,-0.77344 -0.60943,-0.56242 -0.91411,-1.28898 -0.91406,-2.17969 -5e-5,-0.89054 0.2812,-1.59367 0.84375,-2.10937 0.60932,-0.56242 1.64057,-0.84367 3.09375,-0.84375 l 21.79687,0 c 1.40617,8e-5 2.41399,0.28133 3.02344,0.84375 0.60929,0.5157 0.91398,1.21883 0.91406,2.10937 -8e-5,0.89071 -0.30477,1.61727 -0.91406,2.17969 -0.60945,0.5157 -1.61727,0.77351 -3.02344,0.77344 l -4.99219,0 0,76.35937"
         style="font-size:144px;font-style:normal;font-variant:normal;font-weight:normal;font-stretch:normal;line-height:125%;letter-spacing:5px;word-spacing:0px;fill:#ed1c24;fill-opacity:1;stroke:none;font-family:Courier New;-inkscape-font-specification:Courier New"
         id="path7075"
         inkscape:connector-curvature="0" />
      <path
         d="m 606.12924,388.10729 0,33.82031 45.42188,0 0,-17.4375 c -7e-5,-1.40622 0.25774,-2.41403 0.77343,-3.02343 0.56243,-0.60935 1.289,-0.91404 2.17969,-0.91407 0.89055,3e-5 1.59368,0.30472 2.10938,0.91407 0.56242,0.6094 0.84367,1.61721 0.84375,3.02343 l 0,23.34375 -65.17969,0 c -1.40626,0 -2.41407,-0.28125 -3.02344,-0.84375 -0.60938,-0.56249 -0.91407,-1.26562 -0.91406,-2.10937 -1e-5,-0.89062 0.30468,-1.59375 0.91406,-2.10938 0.60937,-0.56249 1.61718,-0.84374 3.02344,-0.84375 l 7.94531,0 0,-70.45312 -7.94531,0 c -1.40626,7e-5 -2.41407,-0.25774 -3.02344,-0.77344 -0.60938,-0.56242 -0.91407,-1.28898 -0.91406,-2.17969 -1e-5,-0.89054 0.30468,-1.59367 0.91406,-2.10937 0.60937,-0.56242 1.61718,-0.84367 3.02344,-0.84375 l 62.08594,0 0,20.32031 c -7e-5,1.40631 -0.28132,2.41412 -0.84375,3.02344 -0.5157,0.60943 -1.21882,0.91412 -2.10938,0.91406 -0.89069,6e-5 -1.61725,-0.30463 -2.17969,-0.91406 -0.51569,-0.60932 -0.7735,-1.61713 -0.77343,-3.02344 l 0,-14.41406 -42.32813,0 0,30.72656 21.16406,0 0,-6.67969 c -4e-5,-1.40619 0.28121,-2.414 0.84375,-3.02343 0.56246,-0.60932 1.28902,-0.91401 2.17969,-0.91407 0.8437,6e-5 1.54683,0.30475 2.10938,0.91407 0.56245,0.60943 0.8437,1.61724 0.84375,3.02343 l 0,19.26563 c -5e-5,1.40628 -0.2813,2.41409 -0.84375,3.02344 -0.56255,0.6094 -1.26568,0.91409 -2.10938,0.91406 -0.89067,3e-5 -1.61723,-0.30466 -2.17969,-0.91406 -0.56254,-0.60935 -0.84379,-1.61716 -0.84375,-3.02344 l 0,-6.67969 -21.16406,0"
         style="font-size:144px;font-style:normal;font-variant:normal;font-weight:normal;font-stretch:normal;line-height:125%;letter-spacing:5px;word-spacing:0px;fill:#ed1c24;fill-opacity:1;stroke:none;font-family:Courier New;-inkscape-font-specification:Courier New"
         id="path7077"
         inkscape:connector-curvature="0" />
      <path
         d="m 740.68393,353.65417 0,-4.14844 c -7e-5,-1.40617 0.25774,-2.41398 0.77344,-3.02344 0.56243,-0.60929 1.28899,-0.91398 2.17968,-0.91406 0.89056,8e-5 1.59368,0.30477 2.10938,0.91406 0.56242,0.60946 0.84367,1.61727 0.84375,3.02344 l 0,16.38281 c -8e-5,1.45319 -0.28133,2.48444 -0.84375,3.09375 -0.5157,0.60943 -1.21882,0.91412 -2.10938,0.91406 -0.79694,6e-5 -1.47663,-0.28119 -2.03906,-0.84375 -0.51569,-0.56244 -0.82038,-1.4765 -0.91406,-2.74218 -0.23444,-3.93744 -2.36725,-7.42962 -6.39844,-10.47657 -5.43756,-4.1718 -11.62505,-6.25773 -18.5625,-6.25781 -4.54691,8e-5 -8.83597,1.00789 -12.86719,3.02344 -3.00002,1.4532 -5.39065,3.23445 -7.17187,5.34375 -3.09377,3.65631 -5.55471,7.711 -7.38281,12.16406 -1.31252,3.28131 -1.96877,6.98443 -1.96875,11.10938 l 0,10.33593 c -2e-5,8.81253 3.18748,16.47659 9.5625,22.99219 6.37497,6.46876 13.78121,9.70313 22.21875,9.70313 5.06245,0 9.58588,-1.10156 13.57031,-3.30469 4.03119,-2.20312 7.92181,-5.53124 11.67187,-9.98438 0.79681,-0.98435 1.68743,-1.47654 2.67188,-1.47656 0.84367,2e-5 1.52336,0.25783 2.03906,0.77344 0.51555,0.51564 0.77336,1.17189 0.77344,1.96875 -8e-5,1.07814 -1.00789,2.71876 -3.02344,4.92187 -3.84382,4.31251 -8.17975,7.57032 -13.00781,9.77344 -4.78131,2.15625 -9.63286,3.23437 -14.55469,3.23438 -4.26567,-1e-5 -8.6016,-0.82032 -13.00781,-2.46094 -3.37503,-1.26562 -6.16409,-2.74219 -8.36719,-4.42969 -2.20315,-1.68749 -4.92189,-4.52343 -8.15625,-8.50781 -3.18751,-4.03123 -5.3672,-7.73436 -6.53906,-11.10938 -1.17188,-3.42184 -1.75782,-7.17184 -1.75781,-11.25 l 0,-12.02343 c -10e-6,-5.81245 1.54686,-11.74213 4.64062,-17.78907 3.14061,-6.09368 7.40623,-10.75773 12.79688,-13.99218 5.43747,-3.28117 11.32027,-4.92179 17.64843,-4.92188 9.74995,9e-5 18.14057,3.32821 25.17188,9.98438"
         style="font-size:144px;font-style:normal;font-variant:normal;font-weight:normal;font-stretch:normal;line-height:125%;letter-spacing:5px;word-spacing:0px;fill:#ed1c24;fill-opacity:1;stroke:none;font-family:Courier New;-inkscape-font-specification:Courier New"
         id="path7079"
         inkscape:connector-curvature="0" />
    </g>
  </g>
</svg>
